PathFileType	4	(X/Y/Z)	C:\Users\Basilio\Documents\Thesis Gigler\squatting_fais\c3dfiles\040\SLS_pre_back2\markers_experimental.trc
DataRate	CameraRate	NumFrames	NumMarkers	Units	OrigDataRate	OrigDataStartFrame	OrigNumFrames
200.000000	200.000000	4	63	mm	200.000000	1094	1459
Frame#	Time	FHD			LBHD			RBHD			C7			T10			CLAV			LSHO			LUUPA			LMUPA			LDUPA			LLEP			LMEP			LRAD			LUL			LRFIN			RSHO			RUPA1			RMUPA			RDUPA			RLEP			RMEP			RRAD			RUL			RUFIN			LASI			RASI			USACR			LSACR			RSACR			LTHI1			LTHI2			LTHI3			LTHI4			LLFC			LMFC			LTIB1			LTIB2			LTIB3			LTIB4			LLMAL			LMMAL			LHEE			LMT1			LMT2			LMT5			RTHI			RTHI2			RTHI3			RTHI4			RLFC			RMFC			RTIB1			RTIB2			RTIB3			RTIB4			RLMAL			RMMAL			RHEE			RMT1			RMT2			RMT5			*61			*62			
		X1	Y1	Z1	X2	Y2	Z2	X3	Y3	Z3	X4	Y4	Z4	X5	Y5	Z5	X6	Y6	Z6	X7	Y7	Z7	X8	Y8	Z8	X9	Y9	Z9	X10	Y10	Z10	X11	Y11	Z11	X12	Y12	Z12	X13	Y13	Z13	X14	Y14	Z14	X15	Y15	Z15	X16	Y16	Z16	X17	Y17	Z17	X18	Y18	Z18	X19	Y19	Z19	X20	Y20	Z20	X21	Y21	Z21	X22	Y22	Z22	X23	Y23	Z23	X24	Y24	Z24	X25	Y25	Z25	X26	Y26	Z26	X27	Y27	Z27	X28	Y28	Z28	X29	Y29	Z29	X30	Y30	Z30	X31	Y31	Z31	X32	Y32	Z32	X33	Y33	Z33	X34	Y34	Z34	X35	Y35	Z35	X36	Y36	Z36	X37	Y37	Z37	X38	Y38	Z38	X39	Y39	Z39	X40	Y40	Z40	X41	Y41	Z41	X42	Y42	Z42	X43	Y43	Z43	X44	Y44	Z44	X45	Y45	Z45	X46	Y46	Z46	X47	Y47	Z47	X48	Y48	Z48	X49	Y49	Z49	X50	Y50	Z50	X51	Y51	Z51	X52	Y52	Z52	X53	Y53	Z53	X54	Y54	Z54	X55	Y55	Z55	X56	Y56	Z56	X57	Y57	Z57	X58	Y58	Z58	X59	Y59	Z59	X60	Y60	Z60	X61	Y61	Z61	X62	Y62	Z62	X63	Y63	Z63	

1095	5.47	-155.8350830078125	1787.224731445313	-1236.350708007813	-272.7379150390626	1729.787353515625	-1288.834350585938	-335.2296142578126	1688.057006835938	-1161.989868164063	-321.0914916992188	1562.393798828125	-1205.211181640625	-345.9161071777344	1250.495361328125	-1183.745971679688	-191.2208099365235	1505.853881835938	-1208.081298828125	-251.2853393554688	1556.624145507813	-1349.015258789063	-88.55265045166017	1512.2001953125	-1420.2529296875	-59.67236328125001	1527.418579101563	-1382.432739257813	-20.16393089294434	1500.003540039063	-1419.295654296875	36.54975128173829	1474.10693359375	-1416.370361328125	25.38128471374512	1421.044677734375	-1379.132446289063	300.6559143066407	1500.60986328125	-1291.333374023438	310.8561096191407	1504.224731445313	-1367.56005859375	389.5543823242189	1516.401733398438	-1282.415771484375	-227.0149230957032	1553.054077148438	-1070.362060546875	-66.44148254394533	1477.777954101563	-1004.76123046875	-38.4830551147461	1501.889770507813	-1036.696655273438	0.3641689419746399	1460.395629882813	-1014.781677246094	59.4621047973633	1449.2734375	-1031.285888671875	43.30858993530274	1397.161987304688	-1082.82373046875	310.5722656250001	1497.78369140625	-1175.2255859375	326.5434265136719	1479.296020507813	-1102.6474609375	407.2119445800782	1501.046630859375	-1180.4365234375	-189.2260284423828	1059.2158203125	-1288.115234375	-179.636703491211	1063.217041015625	-1061.637817382813	-365.1137084960938	1122.763549804688	-1166.253784179688	-376.6347961425782	1092.97998046875	-1192.806396484375	-373.7973937988282	1094.644165039063	-1136.014038085938	-301.2240600585938	798.9348754882815	-1326.64404296875	-256.5736694335938	727.0394897460939	-1330.2431640625	-212.0057220458985	733.9523315429689	-1341.539794921875	-270.3810119628907	672.9974975585939	-1312.136352539063	-237.4223327636719	542.9992065429689	-1298.275268554688	-228.2070465087891	535.9392700195314	-1167.862060546875	-231.0832061767579	319.2584228515626	-1235.390502929688	-309.2079162597657	292.3241882324219	-1267.839233398438	-267.6657714843751	278.1382446289063	-1255.609985351563	-272.9350891113282	203.0350494384766	-1211.336181640625	-354.6766662597657	127.8342742919922	-1211.527099609375	-317.5491333007813	145.7864074707032	-1132.571899414063	-416.9781494140626	98.96289062500003	-1159.467651367188	-204.476547241211	57.7862892150879	-1137.66259765625	-206.3088531494141	48.87826919555665	-1182.980712890625	-256.3338623046876	34.0066261291504	-1231.269897460938	-233.8902282714844	797.8872070312502	-978.2949829101565	-199.7363433837891	740.7317504882814	-978.071716308594	-167.4878997802735	742.2393188476564	-983.4241943359377	-229.3435974121094	662.9605712890626	-980.6892700195315	-242.6246337890626	553.2985229492189	-987.1467285156252	-240.070785522461	543.8120727539064	-1116.902099609375	-381.7264709472657	435.0396728515626	-1027.932739257813	-477.5977783203126	482.3028564453126	-1009.334777832031	-467.266571044922	438.2774658203126	-1019.413452148438	-504.6320800781251	410.946014404297	-1056.926635742188	-632.1580810546876	424.371307373047	-1048.04052734375	-604.0639648437501	419.5948791503907	-1132.59521484375	-680.0906372070314	481.9791259765626	-1107.218017578125	-637.1881713867189	266.3268432617188	-1135.1396484375	-644.2487182617189	263.0426635742188	-1096.174682617188	-688.4834594726564	291.6021118164063	-1049.441650390625	nan	nan	nan	nan	nan	nan	
1096	5.475000000000001	-156.662109375	1787.381225585938	-1236.756469726563	-273.8032836914063	1730.336547851563	-1289.244140625	-336.0685729980469	1689.052734375	-1162.452270507813	-322.1018066406251	1562.530029296875	-1205.39208984375	-345.9187927246094	1250.575439453125	-1183.809204101563	-192.4105072021485	1506.659423828125	-1208.260498046875	-252.2385559082032	1556.857299804688	-1349.426513671875	-89.18360137939455	1512.228149414063	-1420.504272460938	-60.73327636718751	1527.794067382813	-1382.546997070313	-20.9975757598877	1500.238525390625	-1419.391845703125	35.72015380859376	1474.35986328125	-1416.50634765625	24.53135108947755	1421.431762695313	-1379.302124023438	299.5278015136719	1501.334350585938	-1291.569702148438	309.9078979492188	1504.851440429688	-1367.779541015625	388.5496520996095	1517.359619140625	-1282.446044921875	-228.0845031738282	1553.431884765625	-1070.233276367188	-67.46547698974611	1478.401489257813	-1004.755737304688	-39.52994918823243	1502.578491210938	-1037.012451171875	-0.7044529914855958	1460.486083984375	-1015.148376464844	58.427303314209	1449.719482421875	-1031.298706054688	43.01295471191407	1397.92529296875	-1083.728637695313	309.4176025390626	1498.698364257813	-1175.635498046875	325.9838867187501	1480.378173828125	-1103.007690429688	406.2083129882814	1502.103637695313	-1180.781372070313	-188.1951751708985	1059.952758789063	-1288.2197265625	-178.6219024658203	1064.179809570313	-1061.853881835938	-364.3746643066407	1122.834716796875	-1166.223266601563	-375.5755310058594	1092.830810546875	-1192.609008789063	-373.0343017578126	1094.540405273438	-1136.047607421875	-300.8753356933594	799.6929321289065	-1326.399658203125	-256.3891601562501	727.5588989257814	-1330.176391601563	-211.8785705566407	734.5664062500001	-1341.90283203125	-270.5567932128907	673.7584838867189	-1312.092529296875	-238.2144165039063	543.6311645507814	-1298.3203125	-228.7583618164063	536.4498291015626	-1167.826171875	-231.3339233398438	319.4390869140626	-1235.686767578125	-309.6309814453126	292.6373596191407	-1267.836547851563	-268.2289428710938	278.4558410644532	-1255.990966796875	-273.0236816406251	203.4322967529297	-1211.8056640625	-354.7363281250001	127.8592987060547	-1211.610229492188	-317.5023193359376	145.9586639404297	-1132.678833007813	-416.949676513672	99.00952911376956	-1159.461669921875	-204.4574279785157	57.82754516601564	-1137.695678710938	-206.2569732666016	48.91594696044923	-1182.964477539063	-256.2935791015626	33.96217727661134	-1231.278686523438	-232.8067779541016	798.534851074219	-978.274597167969	-198.3113555908204	741.3283691406251	-978.3547363281252	-165.9092102050782	742.9447021484376	-983.205505371094	-227.7903747558594	663.3781738281251	-980.6926879882815	-240.9683532714844	553.7551269531251	-986.9368896484377	-238.7622070312501	544.6337890625001	-1117.116577148438	-379.5829467773438	435.9479980468751	-1029.809204101563	-476.0482788085939	482.8406372070314	-1009.495971679688	-465.744110107422	438.0934448242189	-1020.451965332031	-503.007293701172	410.4909973144532	-1057.83154296875	-630.1499633789064	424.4871215820314	-1048.223754882813	-601.8486938476564	419.0823059082032	-1133.12890625	-678.2073364257814	481.3855590820314	-1108.03466796875	-634.5614624023439	266.1165161132813	-1135.560424804688	-641.6743774414064	262.9141235351563	-1096.172485351563	-686.0269165039064	291.1187744140626	-1049.838012695313	nan	nan	nan	nan	nan	nan	
1097	5.48	-157.6068878173828	1787.651123046875	-1237.06298828125	-274.6022644042969	1730.73828125	-1289.63427734375	-337.1695556640626	1689.730346679688	-1162.67333984375	-323.7655029296876	1562.815063476563	-1205.690551757813	-345.9628601074219	1250.59228515625	-1183.882690429688	-193.4254913330079	1507.267333984375	-1208.335693359375	-253.2641754150391	1557.033447265625	-1349.823120117188	-90.06896209716798	1512.361572265625	-1420.6455078125	-61.63145446777345	1527.86376953125	-1382.79736328125	-21.71282386779786	1500.402099609375	-1419.577758789063	35.45276641845704	1474.36376953125	-1416.5927734375	23.8572063446045	1421.532104492188	-1379.252075195313	299.1224670410157	1501.981689453125	-1291.717529296875	308.2474975585938	1505.740234375	-1367.744995117188	388.1109313964845	1517.923828125	-1282.783325195313	-229.2592773437501	1553.7607421875	-1070.200927734375	-68.60888671875001	1478.708251953125	-1004.844360351563	-40.79835891723634	1502.730224609375	-1037.020263671875	-2.56777310371399	1460.597900390625	-1016.236633300781	57.8834571838379	1449.348999023438	-1031.442626953125	41.98930740356446	1398.5986328125	-1083.774169921875	308.4638671875001	1499.663208007813	-1175.861572265625	325.0610656738282	1481.23291015625	-1103.385620117188	405.5495910644532	1502.68212890625	-1181.120727539063	-187.027572631836	1060.724243164063	-1288.62939453125	-177.7133483886719	1064.637573242188	-1061.539672851563	-363.4705810546876	1122.526123046875	-1166.098754882813	-374.7169494628907	1092.62109375	-1192.62158203125	-371.9518737792969	1094.377075195313	-1135.940307617188	-300.4846496582032	800.586608886719	-1326.130493164063	-256.2215881347657	728.1304931640626	-1329.997314453125	-211.7249145507813	735.0594482421876	-1341.715698242188	-270.6204528808594	674.4992065429689	-1311.88525390625	-238.8354187011719	544.0842895507814	-1298.207153320313	-229.2009735107422	536.9934692382814	-1167.86669921875	-231.7389068603516	319.9839172363282	-1235.890747070313	-310.0205993652344	292.9234619140626	-1267.813598632813	-268.7573242187501	278.8192749023438	-1256.255737304688	-273.1254272460938	203.6361694335938	-1212.161376953125	-355.4874572753907	128.5775604248047	-1211.946166992188	-317.4874572753907	146.0836486816407	-1132.896606445313	-416.7959594726564	99.06386566162112	-1159.32421875	-204.4080657958985	57.95687484741212	-1137.79345703125	-206.3148498535157	48.85515213012697	-1183.012329101563	-256.3088378906251	33.9461898803711	-1231.309692382813	-231.4905090332032	798.985290527344	-978.4070434570315	-196.7152862548829	741.5666503906251	-978.7769775390627	-164.8548889160157	743.3778076171876	-983.3167724609377	-225.9320678710938	664.1889038085939	-980.8704223632815	-239.7773895263672	554.0310058593751	-987.201843261719	-236.1948242187501	544.7070312500001	-1116.775268554688	-378.0064392089844	436.1394653320314	-1027.631469726563	-473.7897338867189	482.9100646972657	-1009.935302734375	-463.3735351562501	438.5089111328126	-1019.978210449219	-499.9825134277345	410.4720764160157	-1057.409790039063	-628.1828613281251	423.7457885742189	-1049.074340820313	-599.8432006835939	418.9300231933595	-1133.476196289063	-676.0856933593751	480.9812622070314	-1108.877197265625	-631.9777221679689	265.8469238281251	-1135.513793945313	-639.4025268554689	261.8300170898438	-1096.502319335938	-683.9924316406251	290.8643798828126	-1050.064208984375	nan	nan	nan	nan	nan	nan	
1098	5.485	-158.3318786621094	1787.756469726563	-1237.40380859375	-275.4968261718751	1731.190307617188	-1289.971313476563	-338.2179870605469	1690.613037109375	-1162.902954101563	-325.0335388183594	1563.215576171875	-1205.617553710938	-345.9640808105469	1250.508666992188	-1183.9501953125	-194.5912170410157	1507.811767578125	-1208.297241210938	-254.0046386718751	1557.007202148438	-1350.211303710938	-90.99840545654298	1512.29931640625	-1421.063354492188	-62.45810317993165	1528.02685546875	-1383.177001953125	-22.48625755310059	1500.452758789063	-1419.809204101563	34.68597030639649	1474.562866210938	-1416.637817382813	23.19868659973145	1421.655151367188	-1379.297729492188	297.8455200195313	1502.865844726563	-1291.872680664063	307.3952331542969	1506.196044921875	-1367.826049804688	387.1314086914064	1518.715087890625	-1282.9013671875	-230.2950744628907	1553.967651367188	-1070.14697265625	-69.56908416748048	1479.183715820313	-1004.8427734375	-41.46352005004884	1503.233276367188	-1036.98291015625	-3.46912693977356	1460.781372070313	-1016.327514648438	57.00793457031251	1449.869506835938	-1031.712158203125	41.60718536376954	1399.062133789063	-1084.634033203125	307.4169616699219	1500.505249023438	-1176.223022460938	323.6971740722657	1481.7783203125	-1103.821899414063	404.3150634765626	1503.946533203125	-1181.450561523438	-185.9992828369141	1061.702392578125	-1288.996459960938	-176.1910705566407	1065.782836914063	-1061.898315429688	-362.6993713378907	1122.18896484375	-1166.012084960938	-373.9145202636719	1092.45947265625	-1192.541259765625	-370.9010925292969	1094.15673828125	-1135.857788085938	-300.0871276855469	801.201599121094	-1325.921875	-256.0082702636719	728.7409057617189	-1329.807250976563	-211.6614837646485	735.5116577148439	-1341.528564453125	-270.7722167968751	675.2506713867189	-1311.60791015625	-239.2584075927735	544.5818481445314	-1298.094116210938	-229.7018737792969	537.3491821289064	-1167.584594726563	-231.9971008300782	320.3879394531251	-1236.094848632813	-310.2817077636719	293.1919555664063	-1267.804443359375	-269.2762145996094	279.1860656738282	-1256.12890625	-273.2309875488282	203.9643859863282	-1212.3173828125	-356.2534790039063	129.1854858398438	-1212.154174804688	-317.4744567871094	146.1463928222657	-1133.063110351563	-416.7657775878907	99.08825683593753	-1159.324951171875	-204.3247528076172	57.92892837524415	-1137.8564453125	-206.1875915527344	48.9590530395508	-1183.025756835938	-256.1947326660157	33.80722045898438	-1231.2421875	-230.0747833251954	799.770446777344	-978.4674072265627	-195.6589508056641	742.5325317382814	-978.6503906250002	-162.8396453857422	744.3703613281251	-983.2390136718752	-224.6585540771485	664.7578125000001	-980.5422973632815	-237.5762634277344	554.9313354492189	-987.0727539062502	-234.7833251953126	545.3973999023439	-1116.805297851563	-375.7785034179688	436.3989868164064	-1028.120483398438	-472.2962341308595	483.3040466308595	-1010.334045410156	-461.512664794922	438.612030029297	-1020.30322265625	-498.3135986328126	409.792938232422	-1059.06591796875	-626.2267456054689	423.8763427734376	-1049.306274414063	-597.6273803710939	418.4099731445314	-1134.015869140625	-674.4913940429689	480.7256469726564	-1109.565673828125	-629.3392944335939	264.9670715332032	-1135.469482421875	-636.7221069335939	261.6900024414063	-1096.579833984375	-681.7570800781251	290.7341308593751	-1050.232543945313	nan	nan	nan	nan	nan	nan	
